<svg xmlns="http://www.w3.org/2000/svg" viewBox="0 0 200 200"><defs><style>.cls-1{fill:#0fe5f0;}</style></defs><title>湿度</title><g id="图层_2" data-name="图层 2"><g id="图层_1-2" data-name="图层 1"><path class="cls-1" d="M100.3,171.49a59,59,0,0,1-30.29,8c-13.73,0-26.53-4.27-36.08-12.05-8.9-7.25-13.79-16.67-13.79-26.56,0-2.11.83-8.93,8.47-26.19,4.85-10.94,11.64-24.33,20.18-39.79,7.74-14,15.57-27.22,21.22-36.59,5.65,9.35,13.43,22.51,21.17,36.52,4.23,7.66,8,14.85,11.41,21.44,2.44-4.84,5.29-10.21,8.61-16.19,1-1.82,2-3.59,3-5.34-1.72-3.21-3.52-6.53-5.38-9.92-15-27-30.14-51.11-30.27-51.36L70,0l-8.5,13.46c-.16.25-15.31,24.31-30.27,51.36-8.86,16-15.92,30-21,41.48C3.25,122.1,0,133.11,0,140.93a51,51,0,0,0,5.88,23.78,59.54,59.54,0,0,0,15.44,18.74C34.44,194.13,51.73,200,70.05,200c17.47,0,34-5.34,46.89-15.12a61.66,61.66,0,0,1-9.28-6.23,58.84,58.84,0,0,1-7.36-7.16Z"/><path class="cls-1" d="M180.22,88.54c-9.33-16.87-18.5-31.45-18.9-32l-7.67-12.16L146,56.5c-.38.62-9.55,15.17-18.9,32-17.74,32.08-19.78,43.13-19.78,48.66a34.81,34.81,0,0,0,4,16.12,40.21,40.21,0,0,0,10.34,12.55,52.5,52.5,0,0,0,64.08,0A40,40,0,0,0,196,153.32a34.5,34.5,0,0,0,4-16.12C200,131.67,198,120.6,180.22,88.54Zm-5.94,62.91a34.49,34.49,0,0,1-41.26,0c-4.84-3.93-7.49-9-7.49-14.23,0-1.34.83-9.57,17.42-39.56,3.77-6.82,7.56-13.3,10.7-18.6,3.16,5.3,6.95,11.8,10.7,18.6,16.57,30,17.42,38.22,17.42,39.56C181.77,142.45,179.12,147.5,174.28,151.45Z"/><path class="cls-1" d="M54.27,133.45l-17.83-2c-.14,1.34-1.17,13.28,7,22.9,5.67,6.68,14,10.32,24.82,10.75L69,147c-5.57-.22-9.56-1.68-11.87-4.36-3.25-3.73-2.82-9.21-2.82-9.28a1,1,0,0,0,0,.14Z"/></g></g></svg>