<svg xmlns="http://www.w3.org/2000/svg" viewBox="0 0 125.06 200"><defs><style>.cls-1{fill:#0fe5f0;}</style></defs><title>温度</title><g id="图层_2" data-name="图层 2"><g id="图层_1-2" data-name="图层 1"><path class="cls-1" d="M53,168a20.4,20.4,0,1,1,20.4-20.4A20.42,20.42,0,0,1,53,168Zm0-20.74v.65l.31-.31a.33.33,0,0,0-.31-.34Z"/><path class="cls-1" d="M94.37,114.94V41.62A41.58,41.58,0,0,0,53.88,0,40.66,40.66,0,0,0,24.32,11.77,43.71,43.71,0,0,0,11.09,42.93v72a52.72,52.72,0,0,0,36,84.79,50.3,50.3,0,0,0,5.48.29,52.71,52.71,0,0,0,41.76-85.06Zm-19.8,56.62a32.63,32.63,0,0,1-46.48-45.64,12.61,12.61,0,0,0,3.09-8.24V42.93a23.57,23.57,0,0,1,7.15-16.77,20.75,20.75,0,0,1,14.48-6.08,4.35,4.35,0,0,1,.51,0,21.49,21.49,0,0,1,21,21.52V117.7a12.5,12.5,0,0,0,3.1,8.24,32.37,32.37,0,0,1,8,21.36A32.75,32.75,0,0,1,74.57,171.56Z"/><rect class="cls-1" x="42.94" y="82.56" width="20.09" height="70.03"/><rect class="cls-1" x="101.9" y="30.39" width="23.16" height="20.09"/><rect class="cls-1" x="101.9" y="59.68" width="23.16" height="20.09"/><rect class="cls-1" x="101.9" y="88.97" width="23.16" height="20.09"/></g></g></svg>