<svg xmlns="http://www.w3.org/2000/svg" viewBox="0 0 200 200"><defs><style>.cls-1{fill:#0fe5f0;}</style></defs><title>光照强度</title><g id="图层_2" data-name="图层 2"><g id="图层_1-2" data-name="图层 1"><path class="cls-1" d="M46.31,144.93,33.18,158.06a6.19,6.19,0,0,0,8.76,8.76l13.13-13.13a6.19,6.19,0,0,0-8.76-8.76ZM42.55,51.38a6.24,6.24,0,1,0,8.83-8.83L38.13,29.29a6.25,6.25,0,0,0-8.84,8.84ZM25,93.75H6.25a6.25,6.25,0,0,0,0,12.5H25a6.25,6.25,0,0,0,0-12.5Zm75-62.5A6.24,6.24,0,0,0,106.25,25V6.25a6.25,6.25,0,0,0-12.5,0V25A6.25,6.25,0,0,0,100,31.25Zm60.14,17.37,13.13-13.13a6.19,6.19,0,0,0-8.76-8.76L151.38,39.86a6.19,6.19,0,0,0,8.76,8.76Zm33.61,45.13H175a6.25,6.25,0,0,0,0,12.5h18.75a6.25,6.25,0,0,0,0-12.5Zm-36.3,54.87a6.24,6.24,0,0,0-8.83,8.83l13.25,13.26a6.25,6.25,0,1,0,8.84-8.84ZM100,43.72A56.3,56.3,0,1,0,156.3,100,56.3,56.3,0,0,0,100,43.72Zm0,125A6.24,6.24,0,0,0,93.75,175v18.75a6.25,6.25,0,0,0,12.5,0V175a6.25,6.25,0,0,0-6.25-6.25Z"/></g></g></svg>