<svg xmlns="http://www.w3.org/2000/svg" viewBox="0 0 200 200"><defs><style>.cls-1{fill:#0fe5f0;}</style></defs><title>光辐射</title><g id="图层_2" data-name="图层 2"><g id="图层_1-2" data-name="图层 1"><path class="cls-1" d="M129.06,176.12a1,1,0,0,0-1.87-.35l-2.42,3.74L92.44,136.09a4,4,0,0,0-5.57-1.1,4,4,0,0,0-1.08,5.6L118.1,184l-4.37.85a1,1,0,0,0-.36,1.87l18.34,12a1,1,0,0,0,1.08-.06,1,1,0,0,0,.42-1Z"/><path class="cls-1" d="M71.49,176.33l-3.42,2.87L54.64,134.76a4,4,0,1,0-7.7,2.33l13.43,44.45-4.48-.48a1,1,0,0,0-1,.53,1,1,0,0,0,.11,1.13l14,16.91a1,1,0,0,0,1.79-.54l2.33-21.86a1,1,0,0,0-1.66-.9Z"/><path class="cls-1" d="M180.35,170.84a1,1,0,0,0-.94-.63,1,1,0,0,0-.94.63l-1.7,4.1L125.85,128.5a4,4,0,1,0-5.76,5.64L171,180.6l-4.15,1.63a1,1,0,0,0,0,1.92l20.23,8.5a1,1,0,0,0,1.11-.23,1,1,0,0,0,.23-1.1Z"/><path class="cls-1" d="M189.14,128.36a1,1,0,0,0-1.88.14l-1.38,4.34L139.6,100.12a4,4,0,1,0-5.24,6l46.28,32.64-4,1.95a1,1,0,0,0,.14,1.89l20.8,5.41a1,1,0,0,0,1.09-.29,1,1,0,0,0,.15-1.11Z"/><path class="cls-1" d="M199.8,97,185.88,80a1,1,0,0,0-1.81.57l-.36,4.48L141.31,67.6a4,4,0,0,0-3.74,7.16L180,92.15,176.53,95a1,1,0,0,0-.34,1.09,1,1,0,0,0,.88.73l21.85,1.84a1,1,0,0,0,1-.53A1,1,0,0,0,199.8,97Z"/><path class="cls-1" d="M32.84,77.61A44.79,44.79,0,1,0,77.63,32.84,44.78,44.78,0,0,0,32.84,77.61Z"/><rect class="cls-1" x="70.16" width="14.93" height="23.88"/><rect class="cls-1" y="70.15" width="23.89" height="14.93"/><rect class="cls-1" x="23.73" y="19.24" width="14.93" height="23.88" transform="translate(-12.91 31.18) rotate(-44.99)"/><rect class="cls-1" x="19.24" y="116.58" width="23.88" height="14.93" transform="translate(-78.57 58.37) rotate(-45)"/><rect class="cls-1" x="112.13" y="23.71" width="23.88" height="14.93" transform="translate(14.3 96.86) rotate(-45)"/></g></g></svg>