<svg xmlns="http://www.w3.org/2000/svg" viewBox="0 0 200 157.93"><defs><style>.cls-1{fill:#0fe5f0;}</style></defs><title>大气压力</title><g id="图层_2" data-name="图层 2"><g id="图层_1-2" data-name="图层 1"><path class="cls-1" d="M63.93,101.17a9.07,9.07,0,0,1-9.07-9.07V9.16A9.07,9.07,0,0,1,73,9.16V92.1a9.08,9.08,0,0,1-9.07,9.07Z"/><path class="cls-1" d="M100.22,121.37a9.08,9.08,0,0,1-9.07-9.07V26.81a9.07,9.07,0,0,1,18.14,0V112.3a9.08,9.08,0,0,1-9.07,9.07Z"/><path class="cls-1" d="M136.5,101.06A9.07,9.07,0,0,1,127.43,92V9.07a9.07,9.07,0,0,1,18.14,0V92a9.07,9.07,0,0,1-9.07,9.07Z"/><path class="cls-1" d="M159.79,124.11a32.31,32.31,0,0,1-32.28-32.28,9.07,9.07,0,1,1,18.13,0,14.14,14.14,0,1,0,28.28,0,9.07,9.07,0,1,1,18.14,0,32.31,32.31,0,0,1-32.27,32.28Z"/><path class="cls-1" d="M40.72,124.11A32.31,32.31,0,0,1,8.45,91.83a9.07,9.07,0,0,1,18.14,0,14.14,14.14,0,1,0,28.27,0,9.07,9.07,0,0,1,18.14,0,32.32,32.32,0,0,1-32.28,32.28Z"/><path class="cls-1" d="M190.93,157.93H9.07a9.07,9.07,0,0,1,0-18.14H190.93a9.07,9.07,0,0,1,0,18.14Z"/></g></g></svg>