<svg xmlns="http://www.w3.org/2000/svg" viewBox="0 0 170 200"><defs><style>.cls-1{fill:#0fe5f0;}</style></defs><title>灯光强度</title><g id="图层_2" data-name="图层 2"><g id="图层_1-2" data-name="图层 1"><path class="cls-1" d="M92.29,28.44a8.13,8.13,0,0,0,.81-3.56V8a8,8,0,0,0-16,0V25a7.91,7.91,0,0,0,.79,3.46A85.17,85.17,0,0,0,0,113.13a2.38,2.38,0,0,0,2.43,2.43H37.18a2.45,2.45,0,0,0-.23,1,46.51,46.51,0,1,0,93,0,2.45,2.45,0,0,0-.23-1h37.83a2.38,2.38,0,0,0,2.43-2.43A85.16,85.16,0,0,0,92.29,28.44Z"/><path class="cls-1" d="M15.64,168.72a2.34,2.34,0,0,1-2-1.13,2.38,2.38,0,0,1,.73-3.33L31.2,153.65a2.4,2.4,0,0,1,2.59,4L16.93,168.31a2,2,0,0,1-1.29.41Z"/><path class="cls-1" d="M46.27,190a2.55,2.55,0,0,1-1.06-.24,2.43,2.43,0,0,1-1.13-3.24L51,172.12a2.43,2.43,0,0,1,4.37,2.11l-6.88,14.42A2.55,2.55,0,0,1,46.27,190Z"/><path class="cls-1" d="M85.08,200a2.38,2.38,0,0,1-2.43-2.43V180.39a2.43,2.43,0,0,1,4.86,0v17.18A2.43,2.43,0,0,1,85.08,200Z"/><path class="cls-1" d="M120.73,191.41a2.53,2.53,0,0,1-2-1l-10.62-15.81a2.45,2.45,0,0,1,4.06-2.75l10.61,15.8a2.46,2.46,0,0,1-.65,3.4,3.17,3.17,0,0,1-1.38.41Z"/><path class="cls-1" d="M152.9,170.26a3,3,0,0,1-1.38-.41l-15.39-10.29a2.45,2.45,0,0,1,2.75-4.05l15.4,10.29a2.4,2.4,0,0,1,.65,3.41,2.57,2.57,0,0,1-2,1Z"/></g></g></svg>