<svg xmlns="http://www.w3.org/2000/svg" viewBox="0 0 164 200"><defs><style>.cls-1{fill:#0fe5f0;}</style></defs><title>营养液</title><g id="图层_2" data-name="图层 2"><g id="图层_1-2" data-name="图层 1"><path class="cls-1" d="M126,56.29V42.61a12.19,12.19,0,0,0-12.18-12.17H92.2V15.53H136V0h-100C33.37,0,13.43.52,0,22.88l13.33,8c9.2-15.33,22-15.28,22.37-15.34h41V30.44H54.79A12.18,12.18,0,0,0,42.62,42.61v13.7A43,43,0,0,0,4.82,99v84.45A16.6,16.6,0,0,0,21.4,200h126A16.59,16.59,0,0,0,164,183.43V99a43,43,0,0,0-38-42.68Z"/></g></g></svg>