<svg xmlns="http://www.w3.org/2000/svg" viewBox="0 0 200 200"><defs><style>.cls-1{fill:#0fe5f0;}</style></defs><title>风速</title><g id="图层_2" data-name="图层 2"><g id="图层_1-2" data-name="图层 1"><path class="cls-1" d="M181.11,105.22H118a5.27,5.27,0,0,1-5.26-5.27,45.51,45.51,0,0,1,84.61-23.27,18.85,18.85,0,0,1-16.21,28.54Z"/><path class="cls-1" d="M41.77,145.5A45.75,45.75,0,0,1,2.68,123.23,18.86,18.86,0,0,1,18.83,94.68H82A5.27,5.27,0,0,1,87.24,100,45.59,45.59,0,0,1,41.77,145.5Z"/><path class="cls-1" d="M105.24,87.26H100A45.55,45.55,0,0,1,76.66,2.59a19.06,19.06,0,0,1,28.58,16.16Z"/><path class="cls-1" d="M113.55,200a18.88,18.88,0,0,1-9.31-2.48,18.62,18.62,0,0,1-9.53-16.37V112.69H100a45.56,45.56,0,0,1,23.26,84.68,18.73,18.73,0,0,1-9.68,2.63Z"/></g></g></svg>